# xmcd
#
# Track frame offsets:
#	150
#	37133
#	56176
#	109879
#	134219
#	175059
#	215523
#	243523
#
# Disc length: 3876 seconds
#
# Revision: 0
# Processed by: cddbd v1.5.2PL0 Copyright (c) Steve Scherf et al.
# Submitted via: EasyCDDAExtractor 9.0.0.1
#
DISCID=800f2208
DTITLE=Deep Purple - Musikhall Bruz 11-11-06 Disc 2
DYEAR=2006
DGENRE=Hard Rock
TTITLE0=Lazy
TTITLE1=Kiss Tomorrow Goodbye
TTITLE2=Don Airey Solo and Perfect Strangers
TTITLE3=Space Truckin'
TTITLE4=Highway Star
TTITLE5=Smoke On The Water
TTITLE6=Hush
TTITLE7=Black Night
EXTD=
EXTT0=
EXTT1=
EXTT2=
EXTT3=
EXTT4=
EXTT5=
EXTT6=
EXTT7=
PLAYORDER=
